<?xml version="1.0" encoding="utf-8"?>
<!-- Generator: Adobe Illustrator 19.0.0, SVG Export Plug-In . SVG Version: 6.00 Build 0)  -->
<svg version="1.1" id="Layer_1" xmlns="http://www.w3.org/2000/svg" xmlns:xlink="http://www.w3.org/1999/xlink" x="0px" y="0px"
	 viewBox="131 -131 512 512" style="enable-background:new 131 -131 512 512;" xml:space="preserve">
<g id="XMLID_4_">
	<path id="XMLID_9_" d="M213.8-3.2h-38.6c-11,0-18.9,8.7-18.9,18.9v83.6h-19c-3.2,0-6.3,3.2-6.3,6.3v38.7c0,3.2,3.2,6.3,6.3,6.3
		h18.9v83.6c0,11,8.7,18.9,18.9,18.9h38.7c11,0,18.9-8.7,18.9-18.9V15.7C232.8,4.7,224.1-3.2,213.8-3.2z M636.7,99.4h-18.9V15.8
		c0-11-8.7-18.9-18.9-18.9h-38.7c-11,0-18.9,8.7-18.9,18.9v217.7c0,11,8.7,18.9,18.9,18.9h38.7c11,0,18.9-8.7,18.9-18.9v-82.8h18.9
		c3.2,0,6.3-3.2,6.3-6.3v-38.7C643,101.7,639.8,99.4,636.7,99.4z M495.5-54.5h-38.7c-11,0-18.9,8.7-18.9,18.9V99.3H335.3V-35.5
		c0-11-8.7-18.9-18.9-18.9h-38.7c-11,0-18.9,8.7-18.9,18.9v320.3c0,11,8.7,18.9,18.9,18.9h38.7c11,0,18.9-8.7,18.9-18.9V150.6h102.6
		v134.9c0,11,8.7,18.9,18.9,18.9h38.7c11,0,18.9-8.7,18.9-18.9v-321C515.2-46.6,506.5-54.5,495.5-54.5z"/>
</g>
</svg>
